<svg xmlns="http://www.w3.org/2000/svg" width="1400" height="360" viewBox="0 0 1400 360" role="img" aria-labelledby="title desc">
  <title id="title">Active Directory Troubleshooting</title>
  <desc id="desc">Professional header banner for the Active Directory Troubleshooting knowledge base.</desc>
  <defs>
    <linearGradient id="bg" x1="0" y1="0" x2="1" y2="1">
      <stop offset="0" stop-color="#071b33"/>
      <stop offset="0.55" stop-color="#0b3a67"/>
      <stop offset="1" stop-color="#0078d4"/>
    </linearGradient>
    <filter id="shadow" x="-20%" y="-20%" width="140%" height="140%"><feDropShadow dx="0" dy="8" stdDeviation="10" flood-opacity=".28"/></filter>
  </defs>
  <rect width="1400" height="360" rx="28" fill="url(#bg)"/>
  <g opacity=".12" fill="none" stroke="#fff" stroke-width="2">
    <circle cx="1180" cy="70" r="170"/><circle cx="1180" cy="70" r="110"/><circle cx="1180" cy="70" r="55"/>
    <path d="M0 300 C260 180 430 390 720 250 S1120 160 1400 250"/>
  </g>
  <g transform="translate(85 76)" filter="url(#shadow)">
    <rect x="0" y="0" width="190" height="190" rx="32" fill="#fff" opacity=".96"/>
    <g transform="translate(35 34)" fill="none" stroke="#0078d4" stroke-width="13" stroke-linecap="round" stroke-linejoin="round">
      <circle cx="60" cy="22" r="20" fill="#0078d4"/>
      <circle cx="22" cy="105" r="20" fill="#5b9bd5"/>
      <circle cx="98" cy="105" r="20" fill="#00a4ef"/>
      <path d="M60 42v28M60 70L22 85M60 70l38 15"/>
    </g>
  </g>
  <text x="330" y="130" font-family="Segoe UI, Arial, sans-serif" font-size="66" font-weight="700" fill="#fff">Active Directory</text>
  <text x="330" y="205" font-family="Segoe UI, Arial, sans-serif" font-size="58" font-weight="600" fill="#8fd3ff">Troubleshooting Handbook</text>
  <text x="334" y="264" font-family="Segoe UI, Arial, sans-serif" font-size="25" fill="#d9efff">Diagnostics • PowerShell • Recovery • Security • Real-world Scenarios</text>
  <g transform="translate(1080 275)">
    <rect width="240" height="48" rx="24" fill="#fff" opacity=".95"/>
    <text x="120" y="31" text-anchor="middle" font-family="Segoe UI, Arial, sans-serif" font-size="20" font-weight="700" fill="#0b3a67">#ToanNguyenITOz</text>
  </g>
</svg>